<svg width="512" height="512" viewBox="0 0 512 512" fill="none" xmlns="http://www.w3.org/2000/svg">
  <!-- Main keystone hexagonal shape -->
  <path d="M256 64L416 192L416 384L256 448L96 384L96 192L256 64Z" fill="url(#gradient1)" stroke="url(#gradient2)" stroke-width="8"/>
  
  <!-- Inner circuit/command pattern -->
  <path d="M256 128L352 224L352 320L256 384L160 320L160 224L256 128Z" fill="none" stroke="url(#gradient3)" stroke-width="6" opacity="0.9"/>
  
  <!-- Secondary inner shape -->
  <path d="M256 160L320 208L320 304L256 352L192 304L192 208L256 160Z" fill="none" stroke="url(#gradient4)" stroke-width="4" opacity="0.7"/>
  
  <!-- Central keystone/command symbol -->
  <path d="M224 224L288 224L280 256L232 256L224 224Z" fill="url(#accent)" stroke="url(#accent2)" stroke-width="2"/>
  <path d="M232 272L280 272L272 288L240 288L232 272Z" fill="url(#accent)" stroke="url(#accent2)" stroke-width="2"/>
  <rect x="240" y="240" width="32" height="24" fill="url(#accent)" opacity="0.8"/>
  
  <!-- Treasury node indicators -->
  <circle cx="192" cy="192" r="12" fill="url(#accent)" stroke="url(#accent2)" stroke-width="2" opacity="0.9"/>
  <circle cx="320" cy="192" r="12" fill="url(#accent)" stroke="url(#accent2)" stroke-width="2" opacity="0.9"/>
  <circle cx="192" cy="320" r="12" fill="url(#accent)" stroke="url(#accent2)" stroke-width="2" opacity="0.9"/>
  <circle cx="320" cy="320" r="12" fill="url(#accent)" stroke="url(#accent2)" stroke-width="2" opacity="0.9"/>
  
  <!-- Corner accent elements -->
  <circle cx="160" cy="160" r="6" fill="url(#accent)" opacity="0.6"/>
  <circle cx="352" cy="160" r="6" fill="url(#accent)" opacity="0.6"/>
  <circle cx="160" cy="352" r="6" fill="url(#accent)" opacity="0.6"/>
  <circle cx="352" cy="352" r="6" fill="url(#accent)" opacity="0.6"/>
  
  <defs>
    <!-- Primary background gradient -->
    <linearGradient id="gradient1" x1="96" y1="64" x2="416" y2="448" gradientUnits="userSpaceOnUse">
      <stop offset="0%" stop-color="#1e293b"/>
      <stop offset="50%" stop-color="#334155"/>
      <stop offset="100%" stop-color="#0f172a"/>
    </linearGradient>
    
    <!-- Border gradient -->
    <linearGradient id="gradient2" x1="96" y1="64" x2="416" y2="448" gradientUnits="userSpaceOnUse">
      <stop offset="0%" stop-color="#3b82f6"/>
      <stop offset="50%" stop-color="#1d4ed8"/>
      <stop offset="100%" stop-color="#1e40af"/>
    </linearGradient>
    
    <!-- Inner pattern gradient 1 -->
    <linearGradient id="gradient3" x1="160" y1="128" x2="352" y2="384" gradientUnits="userSpaceOnUse">
      <stop offset="0%" stop-color="#60a5fa"/>
      <stop offset="100%" stop-color="#3b82f6"/>
    </linearGradient>
    
    <!-- Inner pattern gradient 2 -->
    <linearGradient id="gradient4" x1="192" y1="160" x2="320" y2="352" gradientUnits="userSpaceOnUse">
      <stop offset="0%" stop-color="#22d3ee"/>
      <stop offset="100%" stop-color="#06b6d4"/>
    </linearGradient>
    
    <!-- Accent color for keystone/treasury elements -->
    <linearGradient id="accent" x1="0" y1="0" x2="512" y2="512" gradientUnits="userSpaceOnUse">
      <stop offset="0%" stop-color="#fbbf24"/>
      <stop offset="50%" stop-color="#f59e0b"/>
      <stop offset="100%" stop-color="#d97706"/>
    </linearGradient>
    
    <!-- Accent border -->
    <linearGradient id="accent2" x1="0" y1="0" x2="512" y2="512" gradientUnits="userSpaceOnUse">
      <stop offset="0%" stop-color="#f59e0b"/>
      <stop offset="100%" stop-color="#ea580c"/>
    </linearGradient>
  </defs>
</svg>