<svg xmlns="http://www.w3.org/2000/svg" xmlns:v="https://svgstorm.com"
viewBox = "0 0 200 200"
width="200"
height="200">
<g fill="None" fill-opacity="0.0" stroke="#000000" stroke-opacity="0.00" stroke-width="0.3"><path d="
M 0.00 200.00 
L 200.00 200.00
L 200.00 0.00
L 0.00 0.00
L 0.00 200.00
M 98.00 28.00 
C 96.69 24.44 97.68 21.31 98.00 18.00
C 98.00 15.33 98.00 12.67 98.00 10.00
C 100.74 8.89 104.24 7.53 106.00 5.00
C 125.59 14.33 142.63 29.26 162.00 39.00
C 154.48 46.29 139.54 60.68 129.30 51.70 C 119.07 42.72 105.55 39.19 98.00 28.00
M 77.00 57.00 
C 69.18 70.17 87.60 76.90 95.25 82.75 C 102.89 88.61 98.71 92.10 89.00 90.00 C 79.29 87.90 54.17 95.94 50.00 82.00
C 48.31 76.35 50.16 66.82 50.00 61.00 C 49.84 55.18 48.27 45.55 51.00 41.00
C 54.66 34.90 65.17 33.43 70.70 28.70 C 76.22 23.96 85.30 19.53 92.00 17.00
C 92.92 23.60 89.87 31.61 97.25 35.75 C 104.62 39.89 96.93 44.24 91.92 46.92 C 86.91 49.61 81.56 53.86 77.00 57.00
M 162.00 85.00 
C 156.19 91.47 146.58 94.25 139.77 99.77 C 132.96 105.29 123.77 110.12 116.00 114.00
C 114.99 104.66 118.92 92.65 112.00 86.00
C 116.49 82.60 121.18 79.80 126.00 77.00
C 129.50 74.81 133.13 71.58 137.00 70.00
C 136.64 56.86 154.24 53.51 163.00 47.00
C 166.55 49.11 163.31 61.50 164.00 66.00 C 164.69 70.50 165.03 81.63 162.00 85.00
M 112.00 53.00 
C 113.54 52.66 116.18 52.62 117.00 54.00
C 118.04 55.77 107.82 61.29 109.00 64.00
C 112.75 66.60 115.76 70.21 118.00 74.00
C 110.70 78.49 109.31 66.80 103.00 67.00
C 104.03 71.78 102.51 75.57 97.00 74.00
C 97.00 67.00 97.00 60.00 97.00 53.00
C 103.21 51.02 103.69 56.22 103.00 61.00
C 106.45 58.95 108.58 55.00 112.00 53.00
M 98.00 95.00 
C 97.99 103.32 82.16 100.15 75.00 100.00 C 67.84 99.85 54.04 101.92 47.78 99.22 C 41.52 96.52 39.16 88.10 32.97 86.03 C 26.79 83.96 13.19 95.25 12.03 83.97 C 10.86 72.70 21.81 79.05 28.00 80.00 C 34.19 80.95 41.90 82.15 46.25 89.75 C 50.59 97.35 60.77 94.78 69.00 95.00 C 77.23 95.22 89.41 94.84 98.00 95.00
M 131.00 151.00 
C 131.00 160.54 135.20 179.27 125.00 182.00
C 125.00 173.00 125.00 164.00 125.00 155.00
C 125.00 153.02 124.84 150.97 125.00 149.00
C 125.51 142.55 121.47 135.31 114.25 131.75 C 107.03 128.20 103.01 117.82 105.00 111.00 C 106.99 104.18 95.81 90.02 107.03 90.03 C 118.24 90.04 109.21 104.24 110.00 111.00 C 110.79 117.76 112.10 126.52 120.75 130.25 C 129.39 133.99 131.00 142.78 131.00 151.00
M 37.00 106.00 
C 43.87 108.32 55.68 106.00 63.00 106.00
C 65.75 105.73 69.58 105.00 73.00 105.00
C 75.33 105.00 77.67 105.00 80.00 105.00
C 86.00 105.00 92.00 105.00 98.00 105.00
C 97.55 106.99 99.36 111.23 96.00 111.00
C 91.03 113.40 82.74 110.34 77.00 111.00 C 71.26 111.66 62.94 111.43 57.00 111.00 C 51.06 110.57 42.64 112.81 37.00 111.00
C 33.45 114.62 25.43 116.91 25.03 108.97 C 24.62 101.04 32.72 101.11 37.00 106.00
M 162.00 134.00 
C 162.20 136.10 163.00 139.23 163.00 142.00
C 163.00 145.33 163.07 148.67 163.00 152.00
C 162.97 153.57 163.89 158.45 162.00 159.00
C 158.22 167.32 141.84 169.42 136.00 176.00
C 136.00 168.67 136.00 161.33 136.00 154.00
C 136.00 151.04 135.37 145.72 136.00 143.00 C 136.63 140.28 134.31 133.85 136.00 132.00
C 131.04 127.17 121.40 125.35 120.00 118.00
C 127.03 114.43 130.22 111.95 137.23 107.23 C 144.24 102.51 147.73 109.92 155.08 112.92 C 162.44 115.91 163.46 125.81 162.00 134.00
M 98.00 121.00 
C 95.28 123.82 84.06 122.00 80.00 122.00
C 78.67 122.00 77.33 122.00 76.00 122.00
C 73.33 122.00 70.67 122.00 68.00 122.00
C 67.50 122.00 66.50 122.00 66.00 122.00
C 63.33 122.00 60.67 122.00 58.00 122.00
C 52.87 122.00 46.92 121.60 44.25 127.25 C 41.58 132.90 36.12 131.92 32.00 134.00
C 29.47 139.62 23.07 138.64 21.00 133.00
C 20.27 131.01 20.40 131.60 21.00 130.00
C 23.94 122.16 28.50 128.93 33.00 129.00
C 36.04 124.92 41.19 124.35 44.25 119.25 C 47.30 114.15 57.01 116.61 62.00 116.00 C 66.99 115.39 78.73 116.95 83.00 116.00 C 87.27 115.05 102.93 115.89 98.00 121.00
M 78.00 143.00 
C 82.19 148.07 87.40 150.87 93.25 154.75 C 99.09 158.64 97.53 171.12 98.00 178.00
C 99.11 194.32 86.01 182.61 78.30 176.70 C 70.60 170.78 59.45 167.07 53.00 160.00
C 49.86 156.50 51.00 150.88 51.00 146.00
C 51.00 139.28 47.87 126.31 57.00 127.00 C 66.13 127.70 73.99 126.48 83.00 127.00
C 78.11 131.06 77.27 136.85 78.00 143.00
M 114.00 189.00 
C 115.09 177.19 112.55 171.41 114.00 159.00 C 115.45 146.59 102.21 154.42 98.25 144.75 C 94.28 135.08 110.74 132.16 111.99 142.01 C 113.24 151.85 123.99 153.42 120.00 164.00 C 116.01 174.58 126.63 185.87 114.00 189.00
M 106.00 163.00 
C 111.47 165.46 109.00 177.94 109.00 183.00
C 109.00 185.50 110.18 192.66 108.00 194.00
C 105.76 195.38 103.49 192.38 103.00 191.00
C 101.79 187.60 102.86 181.72 103.00 178.00 C 103.14 174.28 101.67 167.49 103.00 164.00
C 103.80 161.89 103.80 162.01 106.00 163.00 Z"/>
</g>
<g fill="None" fill-opacity="0.0" stroke="#2AE3E1" stroke-opacity="0.94" stroke-width="0.3"><path d="
M 98.00 18.00 
C 98.00 21.08 97.34 25.00 98.00 28.00
C 105.55 39.19 119.07 42.72 129.30 51.70 C 139.54 60.68 154.48 46.29 162.00 39.00
C 142.63 29.26 125.59 14.33 106.00 5.00
C 104.24 7.53 100.74 8.89 98.00 10.00
C 98.00 12.67 98.00 15.33 98.00 18.00 Z"/>
</g>
<g fill="None" fill-opacity="0.0" stroke="#D8DADC" stroke-opacity="0.95" stroke-width="0.3"><path d="
M 51.00 41.00 
C 49.83 43.92 51.00 49.81 51.00 53.00
C 58.50 53.67 69.90 58.84 77.00 57.00
C 81.56 53.86 86.91 49.61 91.92 46.92 C 96.93 44.24 104.62 39.89 97.25 35.75 C 89.87 31.61 92.92 23.60 92.00 17.00
C 85.30 19.53 76.22 23.96 70.70 28.70 C 65.17 33.43 54.66 34.90 51.00 41.00 Z"/>
</g>
<g fill="None" fill-opacity="0.0" stroke="#00FFFF" stroke-opacity="0.01" stroke-width="0.3"><path d="
M 98.00 28.00 
C 97.34 25.00 98.00 21.08 98.00 18.00
C 97.68 21.31 96.69 24.44 98.00 28.00 Z"/>
</g>
<g fill="None" fill-opacity="0.0" stroke="#BCBEC0" stroke-opacity="0.20" stroke-width="0.3"><path d="
M 50.00 82.00 
C 51.82 73.24 51.00 62.51 51.00 53.00
C 51.00 49.81 49.83 43.92 51.00 41.00
C 48.27 45.55 49.84 55.18 50.00 61.00 C 50.16 66.82 48.31 76.35 50.00 82.00 Z"/>
</g>
<g fill="None" fill-opacity="0.0" stroke="#28DDDC" stroke-opacity="0.94" stroke-width="0.3"><path d="
M 126.00 77.00 
C 128.08 76.29 135.50 76.31 136.00 73.00
C 139.77 81.93 149.21 62.33 153.00 74.00
C 156.42 70.87 157.71 75.65 160.00 77.00
C 162.47 76.27 161.19 73.18 163.00 72.00
C 163.00 63.67 163.00 55.33 163.00 47.00
C 154.24 53.51 136.64 56.86 137.00 70.00
C 133.13 71.58 129.50 74.81 126.00 77.00 Z"/>
</g>
<g fill="None" fill-opacity="0.0" stroke="#22DADC" stroke-opacity="0.07" stroke-width="0.3"><path d="
M 163.00 72.00 
C 163.00 75.87 164.11 81.69 162.00 85.00
C 165.03 81.63 164.69 70.50 164.00 66.00 C 163.31 61.50 166.55 49.11 163.00 47.00
C 163.00 55.33 163.00 63.67 163.00 72.00 Z"/>
</g>
<g fill="None" fill-opacity="0.0" stroke="#B7BABC" stroke-opacity="0.95" stroke-width="0.3"><path d="
M 50.00 82.00 
C 54.17 95.94 79.29 87.90 89.00 90.00 C 98.71 92.10 102.89 88.61 95.25 82.75 C 87.60 76.90 69.18 70.17 77.00 57.00
C 69.90 58.84 58.50 53.67 51.00 53.00
C 51.00 62.51 51.82 73.24 50.00 82.00 Z"/>
</g>
<g fill="None" fill-opacity="0.0" stroke="#36414A" stroke-opacity="0.79" stroke-width="0.3"><path d="
M 117.00 54.00 
C 115.62 55.15 112.53 52.93 112.00 53.00
C 108.58 55.00 106.45 58.95 103.00 61.00
C 103.69 56.22 103.21 51.02 97.00 53.00
C 97.00 60.00 97.00 67.00 97.00 74.00
C 102.51 75.57 104.03 71.78 103.00 67.00
C 109.31 66.80 110.70 78.49 118.00 74.00
C 115.76 70.21 112.75 66.60 109.00 64.00
C 107.82 61.29 118.04 55.77 117.00 54.00 Z"/>
</g>
<g fill="None" fill-opacity="0.0" stroke="#606B6F" stroke-opacity="0.76" stroke-width="0.3"><path d="
M 117.00 54.00 
C 116.18 52.62 113.54 52.66 112.00 53.00
C 112.53 52.93 115.62 55.15 117.00 54.00 Z"/>
</g>
<g fill="None" fill-opacity="0.0" stroke="#26CDD2" stroke-opacity="0.95" stroke-width="0.3"><path d="
M 126.00 77.00 
C 121.18 79.80 116.49 82.60 112.00 86.00
C 118.92 92.65 114.99 104.66 116.00 114.00
C 123.77 110.12 132.96 105.29 139.77 99.77 C 146.58 94.25 156.19 91.47 162.00 85.00
C 164.11 81.69 163.00 75.87 163.00 72.00
C 161.19 73.18 162.47 76.27 160.00 77.00
C 157.71 75.65 156.42 70.87 153.00 74.00
C 149.21 62.33 139.77 81.93 136.00 73.00
C 135.50 76.31 128.08 76.29 126.00 77.00 Z"/>
</g>
<g fill="None" fill-opacity="0.0" stroke="#1BD3D1" stroke-opacity="0.84" stroke-width="0.3"><path d="
M 98.00 95.00 
C 89.41 94.84 77.23 95.22 69.00 95.00 C 60.77 94.78 50.59 97.35 46.25 89.75 C 41.90 82.15 34.19 80.95 28.00 80.00 C 21.81 79.05 10.86 72.70 12.03 83.97 C 13.19 95.25 26.79 83.96 32.97 86.03 C 39.16 88.10 41.52 96.52 47.78 99.22 C 54.04 101.92 67.84 99.85 75.00 100.00 C 82.16 100.15 97.99 103.32 98.00 95.00 Z"/>
</g>
<g fill="None" fill-opacity="0.0" stroke="#10C3C3" stroke-opacity="0.81" stroke-width="0.3"><path d="
M 125.00 149.00 
C 124.99 148.54 126.01 151.02 126.00 151.00
C 126.61 152.70 127.20 155.04 128.00 157.00
C 131.85 157.52 128.39 151.94 131.00 151.00
C 131.00 142.78 129.39 133.99 120.75 130.25 C 112.10 126.52 110.79 117.76 110.00 111.00 C 109.21 104.24 118.24 90.04 107.03 90.03 C 95.81 90.02 106.99 104.18 105.00 111.00 C 103.01 117.82 107.03 128.20 114.25 131.75 C 121.47 135.31 125.51 142.55 125.00 149.00 Z"/>
</g>
<g fill="None" fill-opacity="0.0" stroke="#0F9EAE" stroke-opacity="0.83" stroke-width="0.3"><path d="
M 37.00 111.00 
C 37.25 110.75 37.65 110.05 38.00 110.00
C 40.53 108.37 38.67 107.91 37.00 106.00
C 32.72 101.11 24.62 101.04 25.03 108.97 C 25.43 116.91 33.45 114.62 37.00 111.00 Z"/>
</g>
<g fill="None" fill-opacity="0.0" stroke="#00FFFF" stroke-opacity="0.00" stroke-width="0.3"><path d="
M 63.00 106.00 
C 66.33 106.00 69.67 106.07 73.00 106.00
C 73.04 106.00 73.00 105.00 73.00 105.00
C 69.58 105.00 65.75 105.73 63.00 106.00 Z"/>
</g>
<g fill="None" fill-opacity="0.0" stroke="#0082A4" stroke-opacity="0.01" stroke-width="0.3"><path d="
M 73.00 106.00 
C 75.41 105.95 78.30 105.16 80.00 105.00
C 77.67 105.00 75.33 105.00 73.00 105.00
C 73.00 105.00 73.04 106.00 73.00 106.00 Z"/>
</g>
<g fill="None" fill-opacity="0.0" stroke="#1EB7BB" stroke-opacity="0.91" stroke-width="0.3"><path d="
M 73.00 106.00 
C 69.67 106.07 66.33 106.00 63.00 106.00
C 55.68 106.00 43.87 108.32 37.00 106.00
C 38.67 107.91 40.53 108.37 38.00 110.00
C 44.08 109.12 50.97 110.90 57.00 110.00 C 63.03 109.10 71.31 111.48 77.00 110.00 C 82.69 108.52 91.97 112.64 96.00 111.00
C 99.36 111.23 97.55 106.99 98.00 105.00
C 92.00 105.00 86.00 105.00 80.00 105.00
C 78.30 105.16 75.41 105.95 73.00 106.00 Z"/>
</g>
<g fill="None" fill-opacity="0.0" stroke="#1EB9C5" stroke-opacity="0.93" stroke-width="0.3"><path d="
M 136.00 132.00 
C 136.80 132.78 136.84 132.73 137.00 134.00
C 138.81 135.20 145.85 133.92 148.75 135.26 C 151.64 136.60 158.42 135.88 161.00 135.00
C 161.30 140.68 160.18 146.69 162.00 152.00
C 162.11 152.21 163.00 152.00 163.00 152.00
C 163.07 148.67 163.00 145.33 163.00 142.00
C 162.80 139.90 162.00 136.77 162.00 134.00
C 163.46 125.81 162.44 115.91 155.08 112.92 C 147.73 109.92 144.24 102.51 137.23 107.23 C 130.22 111.95 127.03 114.43 120.00 118.00
C 121.40 125.35 131.04 127.17 136.00 132.00 Z"/>
</g>
<g fill="None" fill-opacity="0.0" stroke="#08AEB4" stroke-opacity="0.13" stroke-width="0.3"><path d="
M 37.00 111.00 
C 42.64 112.81 51.06 110.57 57.00 111.00 C 62.94 111.43 71.26 111.66 77.00 111.00 C 82.74 110.34 91.03 113.40 96.00 111.00
C 91.97 112.64 82.69 108.52 77.00 110.00 C 71.31 111.48 63.03 109.10 57.00 110.00 C 50.97 110.90 44.08 109.12 38.00 110.00
C 37.65 110.05 37.25 110.75 37.00 111.00 Z"/>
</g>
<g fill="None" fill-opacity="0.0" stroke="#129DAD" stroke-opacity="0.77" stroke-width="0.3"><path d="
M 33.00 129.00 
C 31.60 130.87 32.89 132.03 32.00 134.00
C 36.12 131.92 41.58 132.90 44.25 127.25 C 46.92 121.60 52.87 122.00 58.00 122.00
C 60.87 121.72 62.96 120.71 66.00 122.00
C 66.50 122.00 67.50 122.00 68.00 122.00
C 71.05 120.70 73.18 121.62 76.00 122.00
C 77.33 122.00 78.67 122.00 80.00 122.00
C 83.04 121.59 95.40 122.76 98.00 121.00
C 102.93 115.89 87.27 115.05 83.00 116.00 C 78.73 116.95 66.99 115.39 62.00 116.00 C 57.01 116.61 47.30 114.15 44.25 119.25 C 41.19 124.35 36.04 124.92 33.00 129.00 Z"/>
</g>
<g fill="None" fill-opacity="0.0" stroke="#26AAAE" stroke-opacity="0.03" stroke-width="0.3"><path d="
M 58.00 122.00 
C 60.67 122.00 63.33 122.00 66.00 122.00
C 62.96 120.71 60.87 121.72 58.00 122.00 Z"/>
</g>
<g fill="None" fill-opacity="0.0" stroke="#2AB4B4" stroke-opacity="0.02" stroke-width="0.3"><path d="
M 68.00 122.00 
C 70.67 122.00 73.33 122.00 76.00 122.00
C 73.18 121.62 71.05 120.70 68.00 122.00 Z"/>
</g>
<g fill="None" fill-opacity="0.0" stroke="#18ADB0" stroke-opacity="0.02" stroke-width="0.3"><path d="
M 80.00 122.00 
C 84.06 122.00 95.28 123.82 98.00 121.00
C 95.40 122.76 83.04 121.59 80.00 122.00 Z"/>
</g>
<g fill="None" fill-opacity="0.0" stroke="#0C86A7" stroke-opacity="0.81" stroke-width="0.3"><path d="
M 21.00 130.00 
C 21.08 129.34 21.06 133.65 21.00 133.00
C 23.07 138.64 29.47 139.62 32.00 134.00
C 32.89 132.03 31.60 130.87 33.00 129.00
C 28.50 128.93 23.94 122.16 21.00 130.00 Z"/>
</g>
<g fill="None" fill-opacity="0.0" stroke="#898D91" stroke-opacity="0.90" stroke-width="0.3"><path d="
M 51.00 146.00 
C 51.05 146.23 51.95 146.65 52.00 147.00
C 52.17 145.80 52.93 143.81 53.00 142.00
C 53.12 139.00 52.91 136.00 53.00 133.00
C 52.26 140.13 59.99 134.76 64.67 137.33 C 69.35 139.90 73.61 142.58 77.00 140.00
C 77.11 141.00 76.53 142.73 78.00 143.00
C 77.27 136.85 78.11 131.06 83.00 127.00
C 73.99 126.48 66.13 127.70 57.00 127.00 C 47.87 126.31 51.00 139.28 51.00 146.00 Z"/>
</g>
<g fill="None" fill-opacity="0.0" stroke="#55C3CD" stroke-opacity="0.54" stroke-width="0.3"><path d="
M 21.00 133.00 
C 21.06 133.65 21.08 129.34 21.00 130.00
C 20.40 131.60 20.27 131.01 21.00 133.00 Z"/>
</g>
<g fill="None" fill-opacity="0.0" stroke="#009AAB" stroke-opacity="0.43" stroke-width="0.3"><path d="
M 136.00 154.00 
C 136.05 153.77 136.95 153.35 137.00 153.00
C 137.81 147.38 137.69 139.64 137.00 134.00
C 136.84 132.73 136.80 132.78 136.00 132.00
C 134.31 133.85 136.63 140.28 136.00 143.00 C 135.37 145.72 136.00 151.04 136.00 154.00 Z"/>
</g>
<g fill="None" fill-opacity="0.0" stroke="#797D82" stroke-opacity="0.95" stroke-width="0.3"><path d="
M 53.00 142.00 
C 56.52 146.98 61.35 139.85 66.69 145.31 C 72.04 150.76 81.25 156.75 87.30 160.70 C 93.34 164.66 91.00 166.88 96.00 168.00
C 96.00 170.67 96.00 173.33 96.00 176.00
C 96.16 176.46 97.86 177.61 98.00 178.00
C 97.53 171.12 99.09 158.64 93.25 154.75 C 87.40 150.87 82.19 148.07 78.00 143.00
C 76.53 142.73 77.11 141.00 77.00 140.00
C 73.61 142.58 69.35 139.90 64.67 137.33 C 59.99 134.76 52.26 140.13 53.00 133.00
C 52.91 136.00 53.12 139.00 53.00 142.00 Z"/>
</g>
<g fill="None" fill-opacity="0.0" stroke="#1BA5B8" stroke-opacity="1.00" stroke-width="0.3"><path d="
M 137.00 134.00 
C 137.69 139.64 137.81 147.38 137.00 153.00
C 146.50 155.24 157.58 142.33 162.00 157.00
C 162.00 155.35 162.14 153.64 162.00 152.00
C 160.18 146.69 161.30 140.68 161.00 135.00
C 158.42 135.88 151.64 136.60 148.75 135.26 C 145.85 133.92 138.81 135.20 137.00 134.00 Z"/>
</g>
<g fill="None" fill-opacity="0.0" stroke="#00FFFF" stroke-opacity="0.00" stroke-width="0.3"><path d="
M 163.00 142.00 
C 163.00 139.23 162.20 136.10 162.00 134.00
C 162.00 136.77 162.80 139.90 163.00 142.00 Z"/>
</g>
<g fill="None" fill-opacity="0.0" stroke="#15A8B4" stroke-opacity="0.74" stroke-width="0.3"><path d="
M 114.00 189.00 
C 126.63 185.87 116.01 174.58 120.00 164.00 C 123.99 153.42 113.24 151.85 111.99 142.01 C 110.74 132.16 94.28 135.08 98.25 144.75 C 102.21 154.42 115.45 146.59 114.00 159.00 C 112.55 171.41 115.09 177.19 114.00 189.00
M 106.00 139.00 
C 108.70 140.26 106.01 145.39 103.32 143.66 C 100.64 141.94 103.49 137.83 106.00 139.00
M 117.00 179.00 
C 117.17 181.58 121.66 186.44 116.00 187.00
C 116.56 184.48 114.81 180.70 117.00 179.00 Z"/>
</g>
<g fill="None" fill-opacity="0.0" stroke="#000000" stroke-opacity="0.00" stroke-width="0.3"><path d="
M 106.00 139.00 
C 103.49 137.83 100.64 141.94 103.32 143.66 C 106.01 145.39 108.70 140.26 106.00 139.00 Z"/>
</g>
<g fill="None" fill-opacity="0.0" stroke="#676B71" stroke-opacity="1.00" stroke-width="0.3"><path d="
M 52.00 147.00 
C 52.51 150.55 51.25 154.50 52.00 158.00
C 52.01 155.88 54.06 151.86 53.00 149.00
C 60.12 153.18 68.18 161.28 76.03 163.97 C 83.87 166.67 89.18 182.89 96.00 176.00
C 96.00 173.33 96.00 170.67 96.00 168.00
C 91.00 166.88 93.34 164.66 87.30 160.70 C 81.25 156.75 72.04 150.76 66.69 145.31 C 61.35 139.85 56.52 146.98 53.00 142.00
C 52.93 143.81 52.17 145.80 52.00 147.00 Z"/>
</g>
<g fill="None" fill-opacity="0.0" stroke="#5A5F64" stroke-opacity="0.15" stroke-width="0.3"><path d="
M 53.00 160.00 
C 52.57 159.53 52.13 158.61 52.00 158.00
C 51.25 154.50 52.51 150.55 52.00 147.00
C 51.95 146.65 51.05 146.23 51.00 146.00
C 51.00 150.88 49.86 156.50 53.00 160.00 Z"/>
</g>
<g fill="None" fill-opacity="0.0" stroke="#4F555C" stroke-opacity="0.90" stroke-width="0.3"><path d="
M 52.00 158.00 
C 52.13 158.61 52.57 159.53 53.00 160.00
C 59.45 167.07 70.60 170.78 78.30 176.70 C 86.01 182.61 99.11 194.32 98.00 178.00
C 97.86 177.61 96.16 176.46 96.00 176.00
C 89.18 182.89 83.87 166.67 76.03 163.97 C 68.18 161.28 60.12 153.18 53.00 149.00
C 54.06 151.86 52.01 155.88 52.00 158.00 Z"/>
</g>
<g fill="None" fill-opacity="0.0" stroke="#008D8D" stroke-opacity="0.01" stroke-width="0.3"><path d="
M 125.00 155.00 
C 125.19 153.92 126.23 152.76 126.00 151.00
C 126.01 151.02 124.99 148.54 125.00 149.00
C 124.84 150.97 125.00 153.02 125.00 155.00 Z"/>
</g>
<g fill="None" fill-opacity="0.0" stroke="#1390AF" stroke-opacity="0.93" stroke-width="0.3"><path d="
M 137.00 153.00 
C 136.95 153.35 136.05 153.77 136.00 154.00
C 136.00 161.33 136.00 168.67 136.00 176.00
C 141.84 169.42 158.22 167.32 162.00 159.00
C 162.19 158.59 162.00 157.50 162.00 157.00
C 157.58 142.33 146.50 155.24 137.00 153.00 Z"/>
</g>
<g fill="None" fill-opacity="0.0" stroke="#1094AA" stroke-opacity="0.76" stroke-width="0.3"><path d="
M 125.00 155.00 
C 125.00 164.00 125.00 173.00 125.00 182.00
C 135.20 179.27 131.00 160.54 131.00 151.00
C 128.39 151.94 131.85 157.52 128.00 157.00
C 127.20 155.04 126.61 152.70 126.00 151.00
C 126.23 152.76 125.19 153.92 125.00 155.00 Z"/>
</g>
<g fill="None" fill-opacity="0.0" stroke="#3FA9A9" stroke-opacity="0.01" stroke-width="0.3"><path d="
M 162.00 157.00 
C 162.00 157.50 162.19 158.59 162.00 159.00
C 163.89 158.45 162.97 153.57 163.00 152.00
C 163.00 152.00 162.11 152.21 162.00 152.00
C 162.14 153.64 162.00 155.35 162.00 157.00 Z"/>
</g>
<g fill="None" fill-opacity="0.0" stroke="#089BAC" stroke-opacity="0.95" stroke-width="0.3"><path d="
M 103.00 164.00 
C 102.07 167.36 104.00 177.46 104.00 182.00
C 104.56 180.77 106.79 179.16 108.00 181.00
C 108.00 176.75 110.02 165.66 106.00 163.00
C 103.80 162.01 103.80 161.89 103.00 164.00 Z"/>
</g>
<g fill="None" fill-opacity="0.0" stroke="#0096A5" stroke-opacity="0.11" stroke-width="0.3"><path d="
M 108.00 181.00 
C 108.00 181.50 108.00 182.50 108.00 183.00
C 108.34 183.23 109.00 183.00 109.00 183.00
C 109.00 177.94 111.47 165.46 106.00 163.00
C 110.02 165.66 108.00 176.75 108.00 181.00 Z"/>
</g>
<g fill="None" fill-opacity="0.0" stroke="#19A2B2" stroke-opacity="0.78" stroke-width="0.3"><path d="
M 103.00 191.00 
C 102.75 190.08 104.00 183.96 104.00 182.00
C 104.00 177.46 102.07 167.36 103.00 164.00
C 101.67 167.49 103.14 174.28 103.00 178.00 C 102.86 181.72 101.79 187.60 103.00 191.00 Z"/>
</g>
<g fill="None" fill-opacity="0.0" stroke="#0285A4" stroke-opacity="1.00" stroke-width="0.3"><path d="
M 117.00 179.00 
C 114.81 180.70 116.56 184.48 116.00 187.00
C 121.66 186.44 117.17 181.58 117.00 179.00 Z"/>
</g>
<g fill="None" fill-opacity="0.0" stroke="#0E829A" stroke-opacity="0.93" stroke-width="0.3"><path d="
M 104.00 182.00 
C 104.00 183.96 102.75 190.08 103.00 191.00
C 103.49 192.38 105.76 195.38 108.00 194.00
C 108.00 190.33 108.00 186.67 108.00 183.00
C 108.00 182.50 108.00 181.50 108.00 181.00
C 106.79 179.16 104.56 180.77 104.00 182.00 Z"/>
</g>
<g fill="None" fill-opacity="0.0" stroke="#057994" stroke-opacity="0.16" stroke-width="0.3"><path d="
M 108.00 194.00 
C 110.18 192.66 109.00 185.50 109.00 183.00
C 109.00 183.00 108.34 183.23 108.00 183.00
C 108.00 186.67 108.00 190.33 108.00 194.00 Z"/>
</g>
<g fill="#000000" fill-opacity="0.00" stroke="None">
<path d="
M 0.00 200.00 
L 200.00 200.00
L 200.00 0.00
L 0.00 0.00
L 0.00 200.00
M 98.00 28.00 
C 96.69 24.44 97.68 21.31 98.00 18.00
C 98.00 15.33 98.00 12.67 98.00 10.00
C 100.74 8.89 104.24 7.53 106.00 5.00
C 125.59 14.33 142.63 29.26 162.00 39.00
C 154.48 46.29 139.54 60.68 129.30 51.70 C 119.07 42.72 105.55 39.19 98.00 28.00
M 77.00 57.00 
C 69.18 70.17 87.60 76.90 95.25 82.75 C 102.89 88.61 98.71 92.10 89.00 90.00 C 79.29 87.90 54.17 95.94 50.00 82.00
C 48.31 76.35 50.16 66.82 50.00 61.00 C 49.84 55.18 48.27 45.55 51.00 41.00
C 54.66 34.90 65.17 33.43 70.70 28.70 C 76.22 23.96 85.30 19.53 92.00 17.00
C 92.92 23.60 89.87 31.61 97.25 35.75 C 104.62 39.89 96.93 44.24 91.92 46.92 C 86.91 49.61 81.56 53.86 77.00 57.00
M 162.00 85.00 
C 156.19 91.47 146.58 94.25 139.77 99.77 C 132.96 105.29 123.77 110.12 116.00 114.00
C 114.99 104.66 118.92 92.65 112.00 86.00
C 116.49 82.60 121.18 79.80 126.00 77.00
C 129.50 74.81 133.13 71.58 137.00 70.00
C 136.64 56.86 154.24 53.51 163.00 47.00
C 166.55 49.11 163.31 61.50 164.00 66.00 C 164.69 70.50 165.03 81.63 162.00 85.00
M 112.00 53.00 
C 113.54 52.66 116.18 52.62 117.00 54.00
C 118.04 55.77 107.82 61.29 109.00 64.00
C 112.75 66.60 115.76 70.21 118.00 74.00
C 110.70 78.49 109.31 66.80 103.00 67.00
C 104.03 71.78 102.51 75.57 97.00 74.00
C 97.00 67.00 97.00 60.00 97.00 53.00
C 103.21 51.02 103.69 56.22 103.00 61.00
C 106.45 58.95 108.58 55.00 112.00 53.00
M 98.00 95.00 
C 97.99 103.32 82.16 100.15 75.00 100.00 C 67.84 99.85 54.04 101.92 47.78 99.22 C 41.52 96.52 39.16 88.10 32.97 86.03 C 26.79 83.96 13.19 95.25 12.03 83.97 C 10.86 72.70 21.81 79.05 28.00 80.00 C 34.19 80.95 41.90 82.15 46.25 89.75 C 50.59 97.35 60.77 94.78 69.00 95.00 C 77.23 95.22 89.41 94.84 98.00 95.00
M 131.00 151.00 
C 131.00 160.54 135.20 179.27 125.00 182.00
C 125.00 173.00 125.00 164.00 125.00 155.00
C 125.00 153.02 124.84 150.97 125.00 149.00
C 125.51 142.55 121.47 135.31 114.25 131.75 C 107.03 128.20 103.01 117.82 105.00 111.00 C 106.99 104.18 95.81 90.02 107.03 90.03 C 118.24 90.04 109.21 104.24 110.00 111.00 C 110.79 117.76 112.10 126.52 120.75 130.25 C 129.39 133.99 131.00 142.78 131.00 151.00
M 37.00 106.00 
C 43.87 108.32 55.68 106.00 63.00 106.00
C 65.75 105.73 69.58 105.00 73.00 105.00
C 75.33 105.00 77.67 105.00 80.00 105.00
C 86.00 105.00 92.00 105.00 98.00 105.00
C 97.55 106.99 99.36 111.23 96.00 111.00
C 91.03 113.40 82.74 110.34 77.00 111.00 C 71.26 111.66 62.94 111.43 57.00 111.00 C 51.06 110.57 42.64 112.81 37.00 111.00
C 33.45 114.62 25.43 116.91 25.03 108.97 C 24.62 101.04 32.72 101.11 37.00 106.00
M 162.00 134.00 
C 162.20 136.10 163.00 139.23 163.00 142.00
C 163.00 145.33 163.07 148.67 163.00 152.00
C 162.97 153.57 163.89 158.45 162.00 159.00
C 158.22 167.32 141.84 169.42 136.00 176.00
C 136.00 168.67 136.00 161.33 136.00 154.00
C 136.00 151.04 135.37 145.72 136.00 143.00 C 136.63 140.28 134.31 133.85 136.00 132.00
C 131.04 127.17 121.40 125.35 120.00 118.00
C 127.03 114.43 130.22 111.95 137.23 107.23 C 144.24 102.51 147.73 109.92 155.08 112.92 C 162.44 115.91 163.46 125.81 162.00 134.00
M 98.00 121.00 
C 95.28 123.82 84.06 122.00 80.00 122.00
C 78.67 122.00 77.33 122.00 76.00 122.00
C 73.33 122.00 70.67 122.00 68.00 122.00
C 67.50 122.00 66.50 122.00 66.00 122.00
C 63.33 122.00 60.67 122.00 58.00 122.00
C 52.87 122.00 46.92 121.60 44.25 127.25 C 41.58 132.90 36.12 131.92 32.00 134.00
C 29.47 139.62 23.07 138.64 21.00 133.00
C 20.27 131.01 20.40 131.60 21.00 130.00
C 23.94 122.16 28.50 128.93 33.00 129.00
C 36.04 124.92 41.19 124.35 44.25 119.25 C 47.30 114.15 57.01 116.61 62.00 116.00 C 66.99 115.39 78.73 116.95 83.00 116.00 C 87.27 115.05 102.93 115.89 98.00 121.00
M 78.00 143.00 
C 82.19 148.07 87.40 150.87 93.25 154.75 C 99.09 158.64 97.53 171.12 98.00 178.00
C 99.11 194.32 86.01 182.61 78.30 176.70 C 70.60 170.78 59.45 167.07 53.00 160.00
C 49.86 156.50 51.00 150.88 51.00 146.00
C 51.00 139.28 47.87 126.31 57.00 127.00 C 66.13 127.70 73.99 126.48 83.00 127.00
C 78.11 131.06 77.27 136.85 78.00 143.00
M 114.00 189.00 
C 115.09 177.19 112.55 171.41 114.00 159.00 C 115.45 146.59 102.21 154.42 98.25 144.75 C 94.28 135.08 110.74 132.16 111.99 142.01 C 113.24 151.85 123.99 153.42 120.00 164.00 C 116.01 174.58 126.63 185.87 114.00 189.00
M 106.00 163.00 
C 111.47 165.46 109.00 177.94 109.00 183.00
C 109.00 185.50 110.18 192.66 108.00 194.00
C 105.76 195.38 103.49 192.38 103.00 191.00
C 101.79 187.60 102.86 181.72 103.00 178.00 C 103.14 174.28 101.67 167.49 103.00 164.00
C 103.80 161.89 103.80 162.01 106.00 163.00 Z"/>
</g>
<g fill="#2AE3E1" fill-opacity="0.94" stroke="None">
<path d="
M 98.00 18.00 
C 98.00 21.08 97.34 25.00 98.00 28.00
C 105.55 39.19 119.07 42.72 129.30 51.70 C 139.54 60.68 154.48 46.29 162.00 39.00
C 142.63 29.26 125.59 14.33 106.00 5.00
C 104.24 7.53 100.74 8.89 98.00 10.00
C 98.00 12.67 98.00 15.33 98.00 18.00 Z"/>
</g>
<g fill="#D8DADC" fill-opacity="0.95" stroke="None">
<path d="
M 51.00 41.00 
C 49.83 43.92 51.00 49.81 51.00 53.00
C 58.50 53.67 69.90 58.84 77.00 57.00
C 81.56 53.86 86.91 49.61 91.92 46.92 C 96.93 44.24 104.62 39.89 97.25 35.75 C 89.87 31.61 92.92 23.60 92.00 17.00
C 85.30 19.53 76.22 23.96 70.70 28.70 C 65.17 33.43 54.66 34.90 51.00 41.00 Z"/>
</g>
<g fill="#00FFFF" fill-opacity="0.01" stroke="None">
<path d="
M 98.00 28.00 
C 97.34 25.00 98.00 21.08 98.00 18.00
C 97.68 21.31 96.69 24.44 98.00 28.00 Z"/>
</g>
<g fill="#BCBEC0" fill-opacity="0.20" stroke="None">
<path d="
M 50.00 82.00 
C 51.82 73.24 51.00 62.51 51.00 53.00
C 51.00 49.81 49.83 43.92 51.00 41.00
C 48.27 45.55 49.84 55.18 50.00 61.00 C 50.16 66.82 48.31 76.35 50.00 82.00 Z"/>
</g>
<g fill="#28DDDC" fill-opacity="0.94" stroke="None">
<path d="
M 126.00 77.00 
C 128.08 76.29 135.50 76.31 136.00 73.00
C 139.77 81.93 149.21 62.33 153.00 74.00
C 156.42 70.87 157.71 75.65 160.00 77.00
C 162.47 76.27 161.19 73.18 163.00 72.00
C 163.00 63.67 163.00 55.33 163.00 47.00
C 154.24 53.51 136.64 56.86 137.00 70.00
C 133.13 71.58 129.50 74.81 126.00 77.00 Z"/>
</g>
<g fill="#22DADC" fill-opacity="0.07" stroke="None">
<path d="
M 163.00 72.00 
C 163.00 75.87 164.11 81.69 162.00 85.00
C 165.03 81.63 164.69 70.50 164.00 66.00 C 163.31 61.50 166.55 49.11 163.00 47.00
C 163.00 55.33 163.00 63.67 163.00 72.00 Z"/>
</g>
<g fill="#B7BABC" fill-opacity="0.95" stroke="None">
<path d="
M 50.00 82.00 
C 54.17 95.94 79.29 87.90 89.00 90.00 C 98.71 92.10 102.89 88.61 95.25 82.75 C 87.60 76.90 69.18 70.17 77.00 57.00
C 69.90 58.84 58.50 53.67 51.00 53.00
C 51.00 62.51 51.82 73.24 50.00 82.00 Z"/>
</g>
<g fill="#36414A" fill-opacity="0.79" stroke="None">
<path d="
M 117.00 54.00 
C 115.62 55.15 112.53 52.93 112.00 53.00
C 108.58 55.00 106.45 58.95 103.00 61.00
C 103.69 56.22 103.21 51.02 97.00 53.00
C 97.00 60.00 97.00 67.00 97.00 74.00
C 102.51 75.57 104.03 71.78 103.00 67.00
C 109.31 66.80 110.70 78.49 118.00 74.00
C 115.76 70.21 112.75 66.60 109.00 64.00
C 107.82 61.29 118.04 55.77 117.00 54.00 Z"/>
</g>
<g fill="#606B6F" fill-opacity="0.76" stroke="None">
<path d="
M 117.00 54.00 
C 116.18 52.62 113.54 52.66 112.00 53.00
C 112.53 52.93 115.62 55.15 117.00 54.00 Z"/>
</g>
<g fill="#26CDD2" fill-opacity="0.95" stroke="None">
<path d="
M 126.00 77.00 
C 121.18 79.80 116.49 82.60 112.00 86.00
C 118.92 92.65 114.99 104.66 116.00 114.00
C 123.77 110.12 132.96 105.29 139.77 99.77 C 146.58 94.25 156.19 91.47 162.00 85.00
C 164.11 81.69 163.00 75.87 163.00 72.00
C 161.19 73.18 162.47 76.27 160.00 77.00
C 157.71 75.65 156.42 70.87 153.00 74.00
C 149.21 62.33 139.77 81.93 136.00 73.00
C 135.50 76.31 128.08 76.29 126.00 77.00 Z"/>
</g>
<g fill="#1BD3D1" fill-opacity="0.84" stroke="None">
<path d="
M 98.00 95.00 
C 89.41 94.84 77.23 95.22 69.00 95.00 C 60.77 94.78 50.59 97.35 46.25 89.75 C 41.90 82.15 34.19 80.95 28.00 80.00 C 21.81 79.05 10.86 72.70 12.03 83.97 C 13.19 95.25 26.79 83.96 32.97 86.03 C 39.16 88.10 41.52 96.52 47.78 99.22 C 54.04 101.92 67.84 99.85 75.00 100.00 C 82.16 100.15 97.99 103.32 98.00 95.00 Z"/>
</g>
<g fill="#10C3C3" fill-opacity="0.81" stroke="None">
<path d="
M 125.00 149.00 
C 124.99 148.54 126.01 151.02 126.00 151.00
C 126.61 152.70 127.20 155.04 128.00 157.00
C 131.85 157.52 128.39 151.94 131.00 151.00
C 131.00 142.78 129.39 133.99 120.75 130.25 C 112.10 126.52 110.79 117.76 110.00 111.00 C 109.21 104.24 118.24 90.04 107.03 90.03 C 95.81 90.02 106.99 104.18 105.00 111.00 C 103.01 117.82 107.03 128.20 114.25 131.75 C 121.47 135.31 125.51 142.55 125.00 149.00 Z"/>
</g>
<g fill="#0F9EAE" fill-opacity="0.83" stroke="None">
<path d="
M 37.00 111.00 
C 37.25 110.75 37.65 110.05 38.00 110.00
C 40.53 108.37 38.67 107.91 37.00 106.00
C 32.72 101.11 24.62 101.04 25.03 108.97 C 25.43 116.91 33.45 114.62 37.00 111.00 Z"/>
</g>
<g fill="#00FFFF" fill-opacity="0.00" stroke="None">
<path d="
M 63.00 106.00 
C 66.33 106.00 69.67 106.07 73.00 106.00
C 73.04 106.00 73.00 105.00 73.00 105.00
C 69.58 105.00 65.75 105.73 63.00 106.00 Z"/>
</g>
<g fill="#0082A4" fill-opacity="0.01" stroke="None">
<path d="
M 73.00 106.00 
C 75.41 105.95 78.30 105.16 80.00 105.00
C 77.67 105.00 75.33 105.00 73.00 105.00
C 73.00 105.00 73.04 106.00 73.00 106.00 Z"/>
</g>
<g fill="#1EB7BB" fill-opacity="0.91" stroke="None">
<path d="
M 73.00 106.00 
C 69.67 106.07 66.33 106.00 63.00 106.00
C 55.68 106.00 43.87 108.32 37.00 106.00
C 38.67 107.91 40.53 108.37 38.00 110.00
C 44.08 109.12 50.97 110.90 57.00 110.00 C 63.03 109.10 71.31 111.48 77.00 110.00 C 82.69 108.52 91.97 112.64 96.00 111.00
C 99.36 111.23 97.55 106.99 98.00 105.00
C 92.00 105.00 86.00 105.00 80.00 105.00
C 78.30 105.16 75.41 105.95 73.00 106.00 Z"/>
</g>
<g fill="#1EB9C5" fill-opacity="0.93" stroke="None">
<path d="
M 136.00 132.00 
C 136.80 132.78 136.84 132.73 137.00 134.00
C 138.81 135.20 145.85 133.92 148.75 135.26 C 151.64 136.60 158.42 135.88 161.00 135.00
C 161.30 140.68 160.18 146.69 162.00 152.00
C 162.11 152.21 163.00 152.00 163.00 152.00
C 163.07 148.67 163.00 145.33 163.00 142.00
C 162.80 139.90 162.00 136.77 162.00 134.00
C 163.46 125.81 162.44 115.91 155.08 112.92 C 147.73 109.92 144.24 102.51 137.23 107.23 C 130.22 111.95 127.03 114.43 120.00 118.00
C 121.40 125.35 131.04 127.17 136.00 132.00 Z"/>
</g>
<g fill="#08AEB4" fill-opacity="0.13" stroke="None">
<path d="
M 37.00 111.00 
C 42.64 112.81 51.06 110.57 57.00 111.00 C 62.94 111.43 71.26 111.66 77.00 111.00 C 82.74 110.34 91.03 113.40 96.00 111.00
C 91.97 112.64 82.69 108.52 77.00 110.00 C 71.31 111.48 63.03 109.10 57.00 110.00 C 50.97 110.90 44.08 109.12 38.00 110.00
C 37.65 110.05 37.25 110.75 37.00 111.00 Z"/>
</g>
<g fill="#129DAD" fill-opacity="0.77" stroke="None">
<path d="
M 33.00 129.00 
C 31.60 130.87 32.89 132.03 32.00 134.00
C 36.12 131.92 41.58 132.90 44.25 127.25 C 46.92 121.60 52.87 122.00 58.00 122.00
C 60.87 121.72 62.96 120.71 66.00 122.00
C 66.50 122.00 67.50 122.00 68.00 122.00
C 71.05 120.70 73.18 121.62 76.00 122.00
C 77.33 122.00 78.67 122.00 80.00 122.00
C 83.04 121.59 95.40 122.76 98.00 121.00
C 102.93 115.89 87.27 115.05 83.00 116.00 C 78.73 116.95 66.99 115.39 62.00 116.00 C 57.01 116.61 47.30 114.15 44.25 119.25 C 41.19 124.35 36.04 124.92 33.00 129.00 Z"/>
</g>
<g fill="#26AAAE" fill-opacity="0.03" stroke="None">
<path d="
M 58.00 122.00 
C 60.67 122.00 63.33 122.00 66.00 122.00
C 62.96 120.71 60.87 121.72 58.00 122.00 Z"/>
</g>
<g fill="#2AB4B4" fill-opacity="0.02" stroke="None">
<path d="
M 68.00 122.00 
C 70.67 122.00 73.33 122.00 76.00 122.00
C 73.18 121.62 71.05 120.70 68.00 122.00 Z"/>
</g>
<g fill="#18ADB0" fill-opacity="0.02" stroke="None">
<path d="
M 80.00 122.00 
C 84.06 122.00 95.28 123.82 98.00 121.00
C 95.40 122.76 83.04 121.59 80.00 122.00 Z"/>
</g>
<g fill="#0C86A7" fill-opacity="0.81" stroke="None">
<path d="
M 21.00 130.00 
C 21.08 129.34 21.06 133.65 21.00 133.00
C 23.07 138.64 29.47 139.62 32.00 134.00
C 32.89 132.03 31.60 130.87 33.00 129.00
C 28.50 128.93 23.94 122.16 21.00 130.00 Z"/>
</g>
<g fill="#898D91" fill-opacity="0.90" stroke="None">
<path d="
M 51.00 146.00 
C 51.05 146.23 51.95 146.65 52.00 147.00
C 52.17 145.80 52.93 143.81 53.00 142.00
C 53.12 139.00 52.91 136.00 53.00 133.00
C 52.26 140.13 59.99 134.76 64.67 137.33 C 69.35 139.90 73.61 142.58 77.00 140.00
C 77.11 141.00 76.53 142.73 78.00 143.00
C 77.27 136.85 78.11 131.06 83.00 127.00
C 73.99 126.48 66.13 127.70 57.00 127.00 C 47.87 126.31 51.00 139.28 51.00 146.00 Z"/>
</g>
<g fill="#55C3CD" fill-opacity="0.54" stroke="None">
<path d="
M 21.00 133.00 
C 21.06 133.65 21.08 129.34 21.00 130.00
C 20.40 131.60 20.27 131.01 21.00 133.00 Z"/>
</g>
<g fill="#009AAB" fill-opacity="0.43" stroke="None">
<path d="
M 136.00 154.00 
C 136.05 153.77 136.95 153.35 137.00 153.00
C 137.81 147.38 137.69 139.64 137.00 134.00
C 136.84 132.73 136.80 132.78 136.00 132.00
C 134.31 133.85 136.63 140.28 136.00 143.00 C 135.37 145.72 136.00 151.04 136.00 154.00 Z"/>
</g>
<g fill="#797D82" fill-opacity="0.95" stroke="None">
<path d="
M 53.00 142.00 
C 56.52 146.98 61.35 139.85 66.69 145.31 C 72.04 150.76 81.25 156.75 87.30 160.70 C 93.34 164.66 91.00 166.88 96.00 168.00
C 96.00 170.67 96.00 173.33 96.00 176.00
C 96.16 176.46 97.86 177.61 98.00 178.00
C 97.53 171.12 99.09 158.64 93.25 154.75 C 87.40 150.87 82.19 148.07 78.00 143.00
C 76.53 142.73 77.11 141.00 77.00 140.00
C 73.61 142.58 69.35 139.90 64.67 137.33 C 59.99 134.76 52.26 140.13 53.00 133.00
C 52.91 136.00 53.12 139.00 53.00 142.00 Z"/>
</g>
<g fill="#1BA5B8" fill-opacity="1.00" stroke="None">
<path d="
M 137.00 134.00 
C 137.69 139.64 137.81 147.38 137.00 153.00
C 146.50 155.24 157.58 142.33 162.00 157.00
C 162.00 155.35 162.14 153.64 162.00 152.00
C 160.18 146.69 161.30 140.68 161.00 135.00
C 158.42 135.88 151.64 136.60 148.75 135.26 C 145.85 133.92 138.81 135.20 137.00 134.00 Z"/>
</g>
<g fill="#00FFFF" fill-opacity="0.00" stroke="None">
<path d="
M 163.00 142.00 
C 163.00 139.23 162.20 136.10 162.00 134.00
C 162.00 136.77 162.80 139.90 163.00 142.00 Z"/>
</g>
<g fill="#15A8B4" fill-opacity="0.74" stroke="None">
<path d="
M 114.00 189.00 
C 126.63 185.87 116.01 174.58 120.00 164.00 C 123.99 153.42 113.24 151.85 111.99 142.01 C 110.74 132.16 94.28 135.08 98.25 144.75 C 102.21 154.42 115.45 146.59 114.00 159.00 C 112.55 171.41 115.09 177.19 114.00 189.00
M 106.00 139.00 
C 108.70 140.26 106.01 145.39 103.32 143.66 C 100.64 141.94 103.49 137.83 106.00 139.00
M 117.00 179.00 
C 117.17 181.58 121.66 186.44 116.00 187.00
C 116.56 184.48 114.81 180.70 117.00 179.00 Z"/>
</g>
<g fill="#000000" fill-opacity="0.00" stroke="None">
<path d="
M 106.00 139.00 
C 103.49 137.83 100.64 141.94 103.32 143.66 C 106.01 145.39 108.70 140.26 106.00 139.00 Z"/>
</g>
<g fill="#676B71" fill-opacity="1.00" stroke="None">
<path d="
M 52.00 147.00 
C 52.51 150.55 51.25 154.50 52.00 158.00
C 52.01 155.88 54.06 151.86 53.00 149.00
C 60.12 153.18 68.18 161.28 76.03 163.97 C 83.87 166.67 89.18 182.89 96.00 176.00
C 96.00 173.33 96.00 170.67 96.00 168.00
C 91.00 166.88 93.34 164.66 87.30 160.70 C 81.25 156.75 72.04 150.76 66.69 145.31 C 61.35 139.85 56.52 146.98 53.00 142.00
C 52.93 143.81 52.17 145.80 52.00 147.00 Z"/>
</g>
<g fill="#5A5F64" fill-opacity="0.15" stroke="None">
<path d="
M 53.00 160.00 
C 52.57 159.53 52.13 158.61 52.00 158.00
C 51.25 154.50 52.51 150.55 52.00 147.00
C 51.95 146.65 51.05 146.23 51.00 146.00
C 51.00 150.88 49.86 156.50 53.00 160.00 Z"/>
</g>
<g fill="#4F555C" fill-opacity="0.90" stroke="None">
<path d="
M 52.00 158.00 
C 52.13 158.61 52.57 159.53 53.00 160.00
C 59.45 167.07 70.60 170.78 78.30 176.70 C 86.01 182.61 99.11 194.32 98.00 178.00
C 97.86 177.61 96.16 176.46 96.00 176.00
C 89.18 182.89 83.87 166.67 76.03 163.97 C 68.18 161.28 60.12 153.18 53.00 149.00
C 54.06 151.86 52.01 155.88 52.00 158.00 Z"/>
</g>
<g fill="#008D8D" fill-opacity="0.01" stroke="None">
<path d="
M 125.00 155.00 
C 125.19 153.92 126.23 152.76 126.00 151.00
C 126.01 151.02 124.99 148.54 125.00 149.00
C 124.84 150.97 125.00 153.02 125.00 155.00 Z"/>
</g>
<g fill="#1390AF" fill-opacity="0.93" stroke="None">
<path d="
M 137.00 153.00 
C 136.95 153.35 136.05 153.77 136.00 154.00
C 136.00 161.33 136.00 168.67 136.00 176.00
C 141.84 169.42 158.22 167.32 162.00 159.00
C 162.19 158.59 162.00 157.50 162.00 157.00
C 157.58 142.33 146.50 155.24 137.00 153.00 Z"/>
</g>
<g fill="#1094AA" fill-opacity="0.76" stroke="None">
<path d="
M 125.00 155.00 
C 125.00 164.00 125.00 173.00 125.00 182.00
C 135.20 179.27 131.00 160.54 131.00 151.00
C 128.39 151.94 131.85 157.52 128.00 157.00
C 127.20 155.04 126.61 152.70 126.00 151.00
C 126.23 152.76 125.19 153.92 125.00 155.00 Z"/>
</g>
<g fill="#3FA9A9" fill-opacity="0.01" stroke="None">
<path d="
M 162.00 157.00 
C 162.00 157.50 162.19 158.59 162.00 159.00
C 163.89 158.45 162.97 153.57 163.00 152.00
C 163.00 152.00 162.11 152.21 162.00 152.00
C 162.14 153.64 162.00 155.35 162.00 157.00 Z"/>
</g>
<g fill="#089BAC" fill-opacity="0.95" stroke="None">
<path d="
M 103.00 164.00 
C 102.07 167.36 104.00 177.46 104.00 182.00
C 104.56 180.77 106.79 179.16 108.00 181.00
C 108.00 176.75 110.02 165.66 106.00 163.00
C 103.80 162.01 103.80 161.89 103.00 164.00 Z"/>
</g>
<g fill="#0096A5" fill-opacity="0.11" stroke="None">
<path d="
M 108.00 181.00 
C 108.00 181.50 108.00 182.50 108.00 183.00
C 108.34 183.23 109.00 183.00 109.00 183.00
C 109.00 177.94 111.47 165.46 106.00 163.00
C 110.02 165.66 108.00 176.75 108.00 181.00 Z"/>
</g>
<g fill="#19A2B2" fill-opacity="0.78" stroke="None">
<path d="
M 103.00 191.00 
C 102.75 190.08 104.00 183.96 104.00 182.00
C 104.00 177.46 102.07 167.36 103.00 164.00
C 101.67 167.49 103.14 174.28 103.00 178.00 C 102.86 181.72 101.79 187.60 103.00 191.00 Z"/>
</g>
<g fill="#0285A4" fill-opacity="1.00" stroke="None">
<path d="
M 117.00 179.00 
C 114.81 180.70 116.56 184.48 116.00 187.00
C 121.66 186.44 117.17 181.58 117.00 179.00 Z"/>
</g>
<g fill="#0E829A" fill-opacity="0.93" stroke="None">
<path d="
M 104.00 182.00 
C 104.00 183.96 102.75 190.08 103.00 191.00
C 103.49 192.38 105.76 195.38 108.00 194.00
C 108.00 190.33 108.00 186.67 108.00 183.00
C 108.00 182.50 108.00 181.50 108.00 181.00
C 106.79 179.16 104.56 180.77 104.00 182.00 Z"/>
</g>
<g fill="#057994" fill-opacity="0.16" stroke="None">
<path d="
M 108.00 194.00 
C 110.18 192.66 109.00 185.50 109.00 183.00
C 109.00 183.00 108.34 183.23 108.00 183.00
C 108.00 186.67 108.00 190.33 108.00 194.00 Z"/>
</g>
</svg>