<?xml version="1.0" standalone="no"?>
<!DOCTYPE svg PUBLIC "-//W3C//DTD SVG 20010904//EN"
 "http://www.w3.org/TR/2001/REC-SVG-20010904/DTD/svg10.dtd">
<svg version="1.0" xmlns="http://www.w3.org/2000/svg"
 width="200.000000pt" height="200.000000pt" viewBox="0 0 200.000000 200.000000"
 preserveAspectRatio="xMidYMid meet">
<metadata>
Created by potrace 1.10, written by Peter Selinger 2001-2011
</metadata>
<g transform="translate(0.000000,200.000000) scale(0.100000,-0.100000)"
fill="#000000" stroke="none">
<path d="M1023 1914 l-43 -26 0 -87 c0 -78 2 -90 23 -109 12 -12 100 -73 196
-135 l173 -114 122 75 c66 41 122 76 124 77 2 1 -19 15 -45 31 -26 15 -148 92
-270 171 -123 79 -226 143 -230 143 -5 -1 -27 -12 -50 -26z m117 -44 c43 -30
221 -145 300 -194 41 -26 86 -55 99 -65 l23 -18 -79 -50 c-44 -28 -89 -54
-100 -57 -21 -7 -163 79 -306 184 -67 49 -76 69 -69 153 4 41 9 51 35 67 32
20 41 18 97 -20z"/>
<path d="M628 1658 l-118 -72 0 -208 0 -208 42 -30 42 -30 199 2 c139 2 202 7
204 14 2 7 -50 47 -117 89 l-120 78 0 72 0 73 125 78 c69 43 125 81 125 85 0
4 -17 19 -37 34 l-38 28 29 -31 29 -31 -48 -28 c-123 -72 -193 -123 -199 -145
-11 -41 -6 -123 8 -143 7 -11 40 -38 72 -60 89 -60 106 -77 92 -87 -7 -4 -78
-8 -158 -8 -127 0 -149 2 -178 20 -18 11 -37 32 -42 46 -6 14 -10 106 -10 204
l0 178 103 68 c98 64 126 84 117 84 -3 0 -58 -33 -122 -72z"/>
<path d="M1525 1463 c-149 -95 -158 -101 -151 -127 3 -11 2 -26 -2 -32 -4 -6
-60 -46 -124 -88 -65 -42 -118 -78 -118 -81 0 -3 10 -15 21 -26 20 -20 21 -29
17 -130 -3 -61 -2 -109 3 -109 8 0 367 231 437 281 22 16 22 19 20 195 l-3
180 -100 -63z m76 -20 c2 -36 2 -166 0 -219 -1 -46 3 -43 -251 -210 l-145 -95
-6 28 c-4 15 -9 65 -11 111 l-5 83 71 46 c119 77 146 101 146 133 0 30 33 59
139 122 58 34 61 34 62 1z"/>
<path d="M977 1463 c-4 -3 -7 -51 -7 -105 0 -98 0 -98 25 -98 21 0 25 5 25 29
0 16 7 34 15 41 13 10 21 6 53 -29 22 -24 46 -41 60 -41 31 0 28 8 -23 60
l-45 46 46 52 c42 48 44 52 23 52 -15 0 -43 -20 -76 -52 l-53 -52 0 52 c0 44
-3 52 -18 52 -10 0 -22 -3 -25 -7z"/>
<path d="M147 1212 c-22 -24 -21 -65 1 -85 24 -22 44 -21 75 3 17 14 40 20 74
20 47 0 51 -2 123 -75 l74 -75 238 0 238 0 0 27 0 26 -227 -6 -226 -6 -77 74
-76 75 -61 0 c-47 0 -64 4 -78 20 -23 25 -57 26 -78 2z m57 -28 c19 -18 12
-34 -14 -34 -25 0 -35 17 -20 35 15 18 15 18 34 -1z"/>
<path d="M1038 1079 c-22 -12 -24 -62 -3 -79 12 -10 15 -37 15 -121 l0 -108
105 -93 105 -93 0 -203 0 -202 25 16 c25 16 25 18 24 148 -1 72 -4 161 -8 197
l-6 66 -101 91 -102 91 -1 99 c-1 78 2 102 14 112 20 16 19 54 -1 74 -18 18
-41 20 -66 5z m52 -44 c0 -19 -20 -29 -32 -17 -15 15 -2 43 17 36 8 -3 15 -12
15 -19z"/>
<path d="M272 958 c-18 -18 -14 -63 6 -81 25 -22 45 -21 67 3 17 19 31 20 327
20 301 0 308 0 308 20 0 20 -7 20 -309 20 -262 0 -310 2 -321 15 -15 18 -61
20 -78 3z"/>
<path d="M1313 882 c-56 -37 -103 -71 -104 -77 -2 -5 33 -35 77 -66 l79 -55
-3 -217 c-2 -119 -1 -217 2 -217 3 0 45 25 93 56 48 31 105 67 126 80 l37 24
0 204 0 203 -100 66 c-55 37 -101 67 -102 66 -2 0 -49 -31 -105 -67z m161 -7
c119 -68 111 -50 114 -244 3 -111 0 -176 -7 -190 -14 -25 -118 -97 -153 -106
-33 -8 -36 8 -31 162 5 182 2 196 -62 241 -86 60 -86 64 -2 121 39 28 74 50
76 50 2 1 32 -15 65 -34z"/>
<path d="M430 784 c-25 -25 -58 -55 -73 -66 -26 -19 -29 -19 -46 -4 -28 26
-79 21 -93 -9 -16 -35 12 -75 53 -75 16 0 32 6 35 14 3 8 20 18 37 22 19 4 57
30 94 65 l61 59 241 0 c234 0 241 1 241 20 0 19 -7 20 -253 20 l-253 0 -44
-46z"/>
<path d="M520 572 l0 -159 225 -146 225 -146 0 148 c0 169 9 150 -111 224 -74
45 -76 48 -83 93 -9 72 -8 80 20 113 l26 31 -151 0 -151 0 0 -158z m228 55
c-2 -90 7 -103 111 -172 l76 -50 3 -94 c2 -53 -2 -99 -7 -104 -6 -6 -42 11
-103 52 -51 33 -120 77 -153 96 -33 19 -73 48 -89 64 -28 29 -29 35 -34 141
-3 78 0 115 8 125 9 11 35 15 101 15 l88 0 -1 -73z"/>
<path d="M1002 627 c-27 -29 -28 -47 -1 -81 14 -18 30 -26 53 -26 23 0 41 -9
64 -33 l32 -33 0 -173 0 -173 23 15 c21 14 22 19 22 179 l0 165 -42 44 c-29
30 -43 53 -43 71 0 32 -35 68 -65 68 -12 0 -31 -10 -43 -23z m68 -22 c15 -18
7 -43 -16 -52 -24 -9 -46 24 -33 48 12 23 32 24 49 4z"/>
<path d="M1030 225 c0 -132 2 -145 19 -155 11 -5 22 -10 25 -10 12 0 6 286 -6
298 -33 33 -38 15 -38 -133z"/>
</g>
</svg>
