<svg xmlns="http://www.w3.org/2000/svg" width="32" height="32" viewBox="0 0 32 32">
  <!-- Keystone hexagonal shape -->
  <path d="M16 2L28 10L28 22L16 30L4 22L4 10L16 2Z" fill="#1e293b" stroke="#3b82f6" stroke-width="1.5"/>
  
  <!-- Inner pattern -->
  <path d="M16 6L24 12L24 20L16 26L8 20L8 12L16 6Z" fill="none" stroke="#60a5fa" stroke-width="1" opacity="0.8"/>
  
  <!-- Central keystone symbol -->
  <path d="M13 13L19 13L18 15L14 15L13 13Z" fill="#fbbf24"/>
  <path d="M14 16L18 16L17 18L15 18L14 16Z" fill="#fbbf24"/>
  <rect x="15" y="14" width="2" height="2" fill="#f59e0b"/>
  
  <!-- Treasury nodes -->
  <circle cx="11" cy="11" r="1" fill="#fbbf24" opacity="0.8"/>
  <circle cx="21" cy="11" r="1" fill="#fbbf24" opacity="0.8"/>
  <circle cx="11" cy="21" r="1" fill="#fbbf24" opacity="0.8"/>
  <circle cx="21" cy="21" r="1" fill="#fbbf24" opacity="0.8"/>
</svg>