<svg width="200" height="200" viewBox="0 0 200 200" fill="none" xmlns="http://www.w3.org/2000/svg">
    <path d="
M 98.00 28.00 
C 96.69 24.44 97.68 21.31 98.00 18.00
C 98.00 15.33 98.00 12.67 98.00 10.00
C 100.74 8.89 104.24 7.53 106.00 5.00
C 125.59 14.33 142.63 29.26 162.00 39.00
C 154.48 46.29 139.54 60.68 129.30 51.70 C 119.07 42.72 105.55 39.19 98.00 28.00
M 77.00 57.00 
C 69.18 70.17 87.60 76.90 95.25 82.75 C 102.89 88.61 98.71 92.10 89.00 90.00 C 79.29 87.90 54.17 95.94 50.00 82.00
C 48.31 76.35 50.16 66.82 50.00 61.00 C 49.84 55.18 48.27 45.55 51.00 41.00
C 54.66 34.90 65.17 33.43 70.70 28.70 C 76.22 23.96 85.30 19.53 92.00 17.00
C 92.92 23.60 89.87 31.61 97.25 35.75 C 104.62 39.89 96.93 44.24 91.92 46.92 C 86.91 49.61 81.56 53.86 77.00 57.00
M 162.00 85.00 
C 156.19 91.47 146.58 94.25 139.77 99.77 C 132.96 105.29 123.77 110.12 116.00 114.00
C 114.99 104.66 118.92 92.65 112.00 86.00
C 116.49 82.60 121.18 79.80 126.00 77.00
C 129.50 74.81 133.13 71.58 137.00 70.00
C 136.64 56.86 154.24 53.51 163.00 47.00
C 166.55 49.11 163.31 61.50 164.00 66.00 C 164.69 70.50 165.03 81.63 162.00 85.00
M 112.00 53.00 
C 113.54 52.66 116.18 52.62 117.00 54.00
C 118.04 55.77 107.82 61.29 109.00 64.00
C 112.75 66.60 115.76 70.21 118.00 74.00
C 110.70 78.49 109.31 66.80 103.00 67.00
C 104.03 71.78 102.51 75.57 97.00 74.00
C 97.00 67.00 97.00 60.00 97.00 53.00
C 103.21 51.02 103.69 56.22 103.00 61.00
C 106.45 58.95 108.58 55.00 112.00 53.00
M 98.00 95.00 
C 97.99 103.32 82.16 100.15 75.00 100.00 C 67.84 99.85 54.04 101.92 47.78 99.22 C 41.52 96.52 39.16 88.10 32.97 86.03 C 26.79 83.96 13.19 95.25 12.03 83.97 C 10.86 72.70 21.81 79.05 28.00 80.00 C 34.19 80.95 41.90 82.15 46.25 89.75 C 50.59 97.35 60.77 94.78 69.00 95.00 C 77.23 95.22 89.41 94.84 98.00 95.00
M 131.00 151.00 
C 131.00 160.54 135.20 179.27 125.00 182.00
C 125.00 173.00 125.00 164.00 125.00 155.00
C 125.00 153.02 124.84 150.97 125.00 149.00
C 125.51 142.55 121.47 135.31 114.25 131.75 C 107.03 128.20 103.01 117.82 105.00 111.00 C 106.99 104.18 95.81 90.02 107.03 90.03 C 118.24 90.04 109.21 104.24 110.00 111.00 C 110.79 117.76 112.10 126.52 120.75 130.25 C 129.39 133.99 131.00 142.78 131.00 151.00
M 37.00 106.00 
C 43.87 108.32 55.68 106.00 63.00 106.00
C 65.75 105.73 69.58 105.00 73.00 105.00
C 75.33 105.00 77.67 105.00 80.00 105.00
C 86.00 105.00 92.00 105.00 98.00 105.00
C 97.55 106.99 99.36 111.23 96.00 111.00
C 91.03 113.40 82.74 110.34 77.00 111.00 C 71.26 111.66 62.94 111.43 57.00 111.00 C 51.06 110.57 42.64 112.81 37.00 111.00
C 33.45 114.62 25.43 116.91 25.03 108.97 C 24.62 101.04 32.72 101.11 37.00 106.00
M 162.00 134.00 
C 162.20 136.10 163.00 139.23 163.00 142.00
C 163.00 145.33 163.07 148.67 163.00 152.00
C 162.97 153.57 163.89 158.45 162.00 159.00
C 158.22 167.32 141.84 169.42 136.00 176.00
C 136.00 168.67 136.00 161.33 136.00 154.00
C 136.00 151.04 135.37 145.72 136.00 143.00 C 136.63 140.28 134.31 133.85 136.00 132.00
C 131.04 127.17 121.40 125.35 120.00 118.00
C 127.03 114.43 130.22 111.95 137.23 107.23 C 144.24 102.51 147.73 109.92 155.08 112.92 C 162.44 115.91 163.46 125.81 162.00 134.00
M 98.00 121.00 
C 95.28 123.82 84.06 122.00 80.00 122.00
C 78.67 122.00 77.33 122.00 76.00 122.00
C 73.33 122.00 70.67 122.00 68.00 122.00
C 67.50 122.00 66.50 122.00 66.00 122.00
C 63.33 122.00 60.67 122.00 58.00 122.00
C 52.87 122.00 46.92 121.60 44.25 127.25 C 41.58 132.90 36.12 131.92 32.00 134.00
C 29.47 139.62 23.07 138.64 21.00 133.00
C 20.27 131.01 20.40 131.60 21.00 130.00
C 23.94 122.16 28.50 128.93 33.00 129.00
C 36.04 124.92 41.19 124.35 44.25 119.25 C 47.30 114.15 57.01 116.61 62.00 116.00 C 66.99 115.39 78.73 116.95 83.00 116.00 C 87.27 115.05 102.93 115.89 98.00 121.00
M 78.00 143.00 
C 82.19 148.07 87.40 150.87 93.25 154.75 C 99.09 158.64 97.53 171.12 98.00 178.00
C 99.11 194.32 86.01 182.61 78.30 176.70 C 70.60 170.78 59.45 167.07 53.00 160.00
C 49.86 156.50 51.00 150.88 51.00 146.00
C 51.00 139.28 47.87 126.31 57.00 127.00 C 66.13 127.70 73.99 126.48 83.00 127.00
C 78.11 131.06 77.27 136.85 78.00 143.00
M 114.00 189.00 
C 115.09 177.19 112.55 171.41 114.00 159.00 C 115.45 146.59 102.21 154.42 98.25 144.75 C 94.28 135.08 110.74 132.16 111.99 142.01 C 113.24 151.85 123.99 153.42 120.00 164.00 C 116.01 174.58 126.63 185.87 114.00 189.00
M 106.00 163.00 
C 111.47 165.46 109.00 177.94 109.00 183.00
C 109.00 185.50 110.18 192.66 108.00 194.00
C 105.76 195.38 103.49 192.38 103.00 191.00
C 101.79 187.60 102.86 181.72 103.00 178.00 C 103.14 174.28 101.67 167.49 103.00 164.00
C 103.80 161.89 103.80 162.01 106.00 163.00 Z
" stroke="#36e27b" stroke-width="6" stroke-linejoin="round" />
</svg>